# xmcd CD database file
#
# Track frame offsets:
#	150
#	25633
#	58674
#	90236
#	106113
#	147890
#
# Disc length: 2285 seconds
#
# Revision: 0
# Processed by: cddbd v1.5.2PL0 Copyright (c) Steve Scherf et al.
# Submitted via: CDex 1.51
#
DISCID=3d08eb06
DTITLE=Joe Castro - Groove Funk Soul
DYEAR=1958
DGENRE=Jazz
TTITLE0=Groove Funk Soul
TTITLE1=Yesterdays
TTITLE2=Day Dream
TTITLE3=It Could Happen To You
TTITLE4=Play Me The Blues
TTITLE5=That's All
EXTD=YEAR: 1958
EXTT0=
EXTT1=
EXTT2=
EXTT3=
EXTT4=
EXTT5=
PLAYORDER=
